<?xml version="1.0" standalone="no"?>
<!DOCTYPE svg PUBLIC "-//W3C//DTD SVG 20010904//EN"
 "http://www.w3.org/TR/2001/REC-SVG-20010904/DTD/svg10.dtd">
<svg version="1.0" xmlns="http://www.w3.org/2000/svg"
 width="262.000000pt" height="262.000000pt" viewBox="0 0 262.000000 262.000000"
 preserveAspectRatio="xMidYMid meet">
<metadata>
Created by potrace 1.11, written by Peter Selinger 2001-2013
</metadata>
<g transform="translate(0.000000,262.000000) scale(0.100000,-0.100000)"
fill="#000000" stroke="none">
<path d="M0 1310 l0 -1310 1310 0 1310 0 0 1310 0 1310 -1310 0 -1310 0 0
-1310z m889 566 c298 -76 439 -319 410 -706 -17 -230 -132 -415 -304 -491
-105 -47 -140 -51 -402 -56 l-253 -5 0 642 0 642 243 -5 c177 -3 259 -9 306
-21z m1399 -98 l-3 -123 -277 -3 -278 -2 0 -125 0 -125 235 0 235 0 0 -120 0
-120 -235 0 -235 0 0 -150 0 -150 290 0 290 0 0 -120 0 -120 -435 0 -435 0 0
640 0 640 425 0 426 0 -3 -122z"/>
<path d="M630 1255 l0 -408 63 7 c124 14 195 48 243 120 61 89 88 257 65 403
-28 182 -121 272 -288 281 l-83 5 0 -408z"/>
</g>
</svg>
